<svg width="568" height="237" viewBox="0 0 568 237" fill="none" xmlns="http://www.w3.org/2000/svg">
<g filter="url(#filter0_d_513_8127)">
<mask id="path-1-inside-1_513_8127" fill="white">
<path fill-rule="evenodd" clip-rule="evenodd" d="M311.903 209.594L281.097 227.775C279.051 228.982 276.44 226.576 276.68 223.705L277.913 209H17C10.3726 209 5 203.627 5 197V12C5 5.37259 10.3726 0 17 0H551C557.627 0 563 5.37259 563 12V197C563 203.627 557.627 209 551 209H312.585C312.397 209.235 312.17 209.436 311.903 209.594Z"/>
</mask>
<path fill-rule="evenodd" clip-rule="evenodd" d="M311.903 209.594L281.097 227.775C279.051 228.982 276.44 226.576 276.68 223.705L277.913 209H17C10.3726 209 5 203.627 5 197V12C5 5.37259 10.3726 0 17 0H551C557.627 0 563 5.37259 563 12V197C563 203.627 557.627 209 551 209H312.585C312.397 209.235 312.17 209.436 311.903 209.594Z" fill="white"/>
<path d="M281.097 227.775L280.589 226.913L281.097 227.775ZM311.903 209.594L312.412 210.455L312.412 210.455L311.903 209.594ZM276.68 223.705L277.677 223.789L276.68 223.705ZM277.913 209V208H279.001L278.91 209.084L277.913 209ZM312.585 209L311.805 208.375L312.105 208H312.585V209ZM280.589 226.913L311.395 208.733L312.412 210.455L281.605 228.636L280.589 226.913ZM277.677 223.789C277.583 224.906 278.049 225.926 278.709 226.534C279.369 227.142 280.057 227.227 280.589 226.913L281.605 228.636C280.091 229.529 278.45 229.015 277.354 228.005C276.256 226.994 275.537 225.376 275.684 223.622L277.677 223.789ZM278.91 209.084L277.677 223.789L275.684 223.622L276.917 208.916L278.91 209.084ZM17 208H277.913V210H17V208ZM6 197C6 203.075 10.9249 208 17 208V210C9.8203 210 4 204.18 4 197H6ZM6 12V197H4V12H6ZM17 1C10.9249 1 6 5.92487 6 12H4C4 4.82031 9.82029 -1 17 -1V1ZM551 1H17V-1H551V1ZM562 12C562 5.92487 557.075 1 551 1V-1C558.18 -1 564 4.82031 564 12H562ZM562 197V12H564V197H562ZM551 208C557.075 208 562 203.075 562 197H564C564 204.18 558.18 210 551 210V208ZM312.585 208H551V210H312.585V208ZM311.395 208.733C311.552 208.64 311.688 208.52 311.805 208.375L313.366 209.625C313.106 209.95 312.788 210.233 312.412 210.455L311.395 208.733Z" fill="black" fill-opacity="0.1" mask="url(#path-1-inside-1_513_8127)"/>
</g>
<defs>
<filter id="filter0_d_513_8127" x="0.671497" y="0" width="566.657" height="236.751" filterUnits="userSpaceOnUse" color-interpolation-filters="sRGB">
<feFlood flood-opacity="0" result="BackgroundImageFix"/>
<feColorMatrix in="SourceAlpha" type="matrix" values="0 0 0 0 0 0 0 0 0 0 0 0 0 0 0 0 0 0 127 0" result="hardAlpha"/>
<feOffset dy="4.3285"/>
<feGaussianBlur stdDeviation="2.16425"/>
<feComposite in2="hardAlpha" operator="out"/>
<feColorMatrix type="matrix" values="0 0 0 0 0 0 0 0 0 0 0 0 0 0 0 0 0 0 0.04 0"/>
<feBlend mode="normal" in2="BackgroundImageFix" result="effect1_dropShadow_513_8127"/>
<feBlend mode="normal" in="SourceGraphic" in2="effect1_dropShadow_513_8127" result="shape"/>
</filter>
</defs>
</svg>
